<svg width="20" height="18" viewBox="0 0 20 18" fill="none" xmlns="http://www.w3.org/2000/svg">
<path opacity="0.5" d="M20 7.00001H0V14.875C0 15.5712 0.316071 16.2389 0.87868 16.7312C1.44129 17.2235 2.20435 17.5 3 17.5H17C17.7956 17.5 18.5587 17.2235 19.1213 16.7312C19.6839 16.2389 20 15.5712 20 14.875V7.00001ZM5 5.25C4.73478 5.25 4.48043 5.15782 4.29289 4.99372C4.10536 4.82963 4 4.60707 4 4.375V0.875001C4 0.642936 4.10536 0.420376 4.29289 0.256282C4.48043 0.0921873 4.73478 0 5 0C5.26522 0 5.51957 0.0921873 5.70711 0.256282C5.89464 0.420376 6 0.642936 6 0.875001V4.375C6 4.60707 5.89464 4.82963 5.70711 4.99372C5.51957 5.15782 5.26522 5.25 5 5.25ZM15 5.25C14.7348 5.25 14.4804 5.15782 14.2929 4.99372C14.1054 4.82963 14 4.60707 14 4.375V0.875001C14 0.642936 14.1054 0.420376 14.2929 0.256282C14.4804 0.0921873 14.7348 0 15 0C15.2652 0 15.5196 0.0921873 15.7071 0.256282C15.8946 0.420376 16 0.642936 16 0.875001V4.375C16 4.60707 15.8946 4.82963 15.7071 4.99372C15.5196 5.15782 15.2652 5.25 15 5.25Z" fill="black"/>
<path d="M17 1.75H16V4.375C16 4.60706 15.8946 4.82962 15.7071 4.99372C15.5196 5.15781 15.2652 5.25 15 5.25C14.7348 5.25 14.4804 5.15781 14.2929 4.99372C14.1054 4.82962 14 4.60706 14 4.375V1.75H6V4.375C6 4.60706 5.89464 4.82962 5.70711 4.99372C5.51957 5.15781 5.26522 5.25 5 5.25C4.73478 5.25 4.48043 5.15781 4.29289 4.99372C4.10536 4.82962 4 4.60706 4 4.375V1.75H3C2.20435 1.75 1.44129 2.02656 0.87868 2.51884C0.316071 3.01113 0 3.67881 0 4.375V7H20V4.375C20 3.67881 19.6839 3.01113 19.1213 2.51884C18.5587 2.02656 17.7956 1.75 17 1.75Z" fill="black"/>
</svg>
