<svg width="20" height="18" viewBox="0 0 20 18" fill="none" xmlns="http://www.w3.org/2000/svg">
<path d="M0.833403 7.29082C0.612371 7.29082 0.400392 7.21399 0.244098 7.07724C0.0878049 6.94048 0 6.755 0 6.56159V0.729228C0 0.535825 0.0878049 0.350343 0.244098 0.213586C0.400392 0.0768293 0.612371 0 0.833403 0H7.50063C7.72166 0 7.93364 0.0768293 8.08993 0.213586C8.24622 0.350343 8.33403 0.535825 8.33403 0.729228V6.56159C8.33403 6.755 8.24622 6.94048 8.08993 7.07724C7.93364 7.21399 7.72166 7.29082 7.50063 7.29082H0.833403ZM12.501 7.29082C12.28 7.29082 12.068 7.21399 11.9117 7.07724C11.7554 6.94048 11.6676 6.755 11.6676 6.56159V0.729228C11.6676 0.535825 11.7554 0.350343 11.9117 0.213586C12.068 0.0768293 12.28 0 12.501 0H19.1666C19.3876 0 19.5996 0.0768293 19.7559 0.213586C19.9122 0.350343 20 0.535825 20 0.729228V6.56159C20 6.755 19.9122 6.94048 19.7559 7.07724C19.5996 7.21399 19.3876 7.29082 19.1666 7.29082H12.501ZM0.833403 17.5C0.612371 17.5 0.400392 17.4232 0.244098 17.2864C0.0878049 17.1497 0 16.9642 0 16.7708V10.937C0 10.7436 0.0878049 10.5581 0.244098 10.4213C0.400392 10.2846 0.612371 10.2077 0.833403 10.2077H7.50063C7.72166 10.2077 7.93364 10.2846 8.08993 10.4213C8.24622 10.5581 8.33403 10.7436 8.33403 10.937V16.7708C8.33403 16.9642 8.24622 17.1497 8.08993 17.2864C7.93364 17.4232 7.72166 17.5 7.50063 17.5H0.833403ZM12.501 17.5C12.28 17.5 12.068 17.4232 11.9117 17.2864C11.7554 17.1497 11.6676 16.9642 11.6676 16.7708V10.937C11.6676 10.7436 11.7554 10.5581 11.9117 10.4213C12.068 10.2846 12.28 10.2077 12.501 10.2077H19.1666C19.3876 10.2077 19.5996 10.2846 19.7559 10.4213C19.9122 10.5581 20 10.7436 20 10.937V16.7708C20 16.9642 19.9122 17.1497 19.7559 17.2864C19.5996 17.4232 19.3876 17.5 19.1666 17.5H12.501Z" fill="#0D1718"/>
</svg>
